<svg width="17" height="17" viewBox="0 0 17 17" fill="none" xmlns="http://www.w3.org/2000/svg">
<path d="M6.8 1.36C6.8 0.608893 6.19111 0 5.44 0H1.36C0.608893 0 0 0.608893 0 1.36V5.44C0 6.19111 0.608893 6.8 1.36 6.8H5.44C6.19111 6.8 6.8 6.19111 6.8 5.44V1.36Z" fill="white"/>
<path d="M17 1.36C17 0.608893 16.3911 0 15.64 0H11.56C10.8089 0 10.2 0.608893 10.2 1.36V5.44C10.2 6.19111 10.8089 6.8 11.56 6.8H15.64C16.3911 6.8 17 6.19111 17 5.44V1.36Z" fill="white"/>
<path d="M0 11.56C0 10.8089 0.608893 10.2 1.36 10.2H5.44C6.19111 10.2 6.8 10.8089 6.8 11.56V15.64C6.8 16.3911 6.19111 17 5.44 17H1.36C0.608893 17 0 16.3911 0 15.64V11.56Z" fill="white"/>
<path d="M17 11.56C17 10.8089 16.3911 10.2 15.64 10.2H11.56C10.8089 10.2 10.2 10.8089 10.2 11.56V15.64C10.2 16.3911 10.8089 17 11.56 17H15.64C16.3911 17 17 16.3911 17 15.64V11.56Z" fill="white"/>
</svg>
