<svg width="89" height="22" viewBox="0 0 89 22" fill="none" xmlns="http://www.w3.org/2000/svg">
<path d="M88.2863 14.9052H81.0377V13.7051H88.2863V14.9052Z" fill="#68A500"/>
<path d="M88.2864 7.73169V8.92105H87.6406C88.1411 9.3462 88.394 9.91128 88.394 10.6217C88.394 11.1437 88.2487 11.585 87.9635 11.9456C87.6729 12.3061 87.2747 12.4891 86.7581 12.4891C86.193 12.4891 85.7679 12.2954 85.4773 11.9025C85.1867 11.5096 85.0414 10.9984 85.0414 10.3633C85.0414 9.85208 85.1168 9.36773 85.2621 8.91566H85.1652C84.7993 8.91566 84.5248 9.02868 84.3311 9.24933C84.1374 9.46998 84.0405 9.79288 84.0405 10.2073C84.0405 10.6862 84.1481 11.1814 84.3688 11.7088L83.4055 12.0371C83.1149 11.3859 82.9696 10.7239 82.9696 10.0404C82.9696 9.28162 83.1633 8.70578 83.5454 8.3183C83.9275 7.93081 84.4764 7.73707 85.1813 7.73707H88.2918L88.2864 7.73169ZM86.3921 8.89414H86.0962C85.9563 9.24933 85.8863 9.65296 85.8863 10.0943C85.8863 10.471 85.9616 10.767 86.1069 10.9769C86.2522 11.1867 86.4567 11.2944 86.7204 11.2944C86.9572 11.2944 87.1455 11.1975 87.2855 11.0038C87.4254 10.81 87.4953 10.5678 87.4953 10.2772C87.4953 9.87361 87.3931 9.53994 87.1886 9.28162C86.9841 9.01792 86.7204 8.88876 86.3921 8.88876V8.89414Z" fill="#68A500"/>
<path d="M88.3939 3.32415C88.3939 4.0453 88.0872 4.63729 87.4683 5.10011H88.2809V6.30023H81.0322V5.10011H83.9112C83.2547 4.63729 82.9265 4.0453 82.9265 3.32415C82.9265 2.6622 83.174 2.09174 83.6691 1.60739C84.1642 1.12304 84.8315 0.880859 85.6709 0.880859C86.5104 0.880859 87.1616 1.12304 87.6513 1.60739C88.1464 2.09174 88.3939 2.6622 88.3939 3.32415ZM87.3499 3.604C87.3499 3.17885 87.1939 2.82365 86.8818 2.53842C86.5696 2.24781 86.1607 2.10789 85.6494 2.10789C85.1382 2.10789 84.7507 2.25319 84.4386 2.54381C84.1265 2.83442 83.9704 3.18961 83.9704 3.604C83.9704 4.01839 84.1319 4.37897 84.4494 4.68034C84.7669 4.98172 85.1759 5.13241 85.6709 5.13241C86.166 5.13241 86.5643 4.98172 86.8764 4.68034C87.1885 4.37897 87.3499 4.01839 87.3499 3.604Z" fill="#68A500"/>
<path d="M0 18.5919H0.581186V19.017C0.807203 18.6995 1.09241 18.5381 1.4422 18.5381C1.76508 18.5381 2.03953 18.6565 2.27631 18.8986C2.51309 19.1354 2.6261 19.4637 2.6261 19.8674C2.6261 20.271 2.50771 20.5885 2.27631 20.8307C2.04491 21.0675 1.76508 21.1913 1.4422 21.1913C1.09241 21.1913 0.807203 21.0406 0.581186 20.7446V21.9124H0V18.5919ZM1.30767 20.6854C1.51216 20.6854 1.68436 20.61 1.82428 20.4593C1.96419 20.3087 2.03415 20.1095 2.03415 19.862C2.03415 19.6144 1.96419 19.4261 1.82428 19.2754C1.68436 19.1247 1.51216 19.0493 1.30767 19.0493C1.10318 19.0493 0.930974 19.1247 0.785677 19.2807C0.640381 19.4368 0.565042 19.6306 0.565042 19.8727C0.565042 20.1149 0.640381 20.3033 0.785677 20.4593C0.930974 20.61 1.10856 20.6908 1.30767 20.6908V20.6854Z" fill="#68A500"/>
<path d="M5.84415 21.1321H5.26834V20.8199C5.06385 21.0621 4.7894 21.1859 4.445 21.1859C4.19207 21.1859 3.97682 21.1159 3.80462 20.976C3.63241 20.8361 3.54093 20.6423 3.54093 20.3894C3.54093 20.1149 3.63779 19.9104 3.82614 19.7705C4.01449 19.6306 4.26203 19.5606 4.57415 19.5606C4.82169 19.5606 5.05847 19.5983 5.27911 19.6682V19.6198C5.27911 19.4422 5.22529 19.3077 5.11767 19.2162C5.01004 19.1247 4.85398 19.0762 4.65487 19.0762C4.42347 19.0762 4.18131 19.1301 3.92839 19.2377L3.77233 18.7695C4.08445 18.6296 4.40733 18.5596 4.74097 18.5596C5.11228 18.5596 5.38673 18.6511 5.57508 18.8394C5.76343 19.0278 5.85491 19.2915 5.85491 19.6359V21.1428L5.84415 21.1321ZM5.27911 20.2118V20.0665C5.1069 19.9965 4.91317 19.9642 4.69792 19.9642C4.51495 19.9642 4.36966 20.0019 4.26741 20.0719C4.16517 20.1418 4.11135 20.2441 4.11135 20.3679C4.11135 20.4809 4.15979 20.5724 4.25127 20.6423C4.34275 20.7123 4.46114 20.7446 4.60106 20.7446C4.79478 20.7446 4.95623 20.6961 5.08538 20.5939C5.21453 20.497 5.27373 20.3679 5.27373 20.2064L5.27911 20.2118Z" fill="#68A500"/>
<path d="M7.88368 21.1913C7.44779 21.1913 7.07648 21.0621 6.76974 20.8038L7.04419 20.4163C7.28097 20.6208 7.55004 20.7177 7.84601 20.7177C7.98055 20.7177 8.09355 20.6854 8.18504 20.6208C8.27652 20.5562 8.32495 20.4701 8.32495 20.3679C8.32495 20.271 8.2819 20.1956 8.19042 20.1364C8.09894 20.0772 7.97517 20.0503 7.80834 20.0503H7.49622V19.6306H7.80834C7.94288 19.6306 8.0505 19.5983 8.13122 19.5391C8.21194 19.4799 8.255 19.3991 8.255 19.3023C8.255 19.2162 8.21733 19.1462 8.13661 19.0924C8.05589 19.0386 7.95902 19.0117 7.83525 19.0117C7.55004 19.0117 7.31326 19.0978 7.11415 19.27L6.85584 18.904C7.13567 18.6619 7.48008 18.5381 7.88906 18.5381C8.16889 18.5381 8.39491 18.6027 8.57249 18.7318C8.75008 18.861 8.83618 19.0224 8.83618 19.2216C8.83618 19.4906 8.70165 19.6844 8.43796 19.7974C8.7447 19.905 8.90076 20.1095 8.90076 20.4163C8.90076 20.6369 8.80389 20.8199 8.61555 20.9706C8.4272 21.1213 8.17966 21.1966 7.8783 21.1966L7.88368 21.1913Z" fill="#68A500"/>
<path d="M9.99317 18.5919H10.5744V19.017C10.8004 18.6995 11.0856 18.5381 11.4354 18.5381C11.7583 18.5381 12.0327 18.6565 12.2695 18.8986C12.5063 19.1354 12.6193 19.4637 12.6193 19.8674C12.6193 20.271 12.5009 20.5885 12.2695 20.8307C12.0381 21.0675 11.7583 21.1913 11.4354 21.1913C11.0856 21.1913 10.8004 21.0406 10.5744 20.7446V21.9124H9.99317V18.5919ZM11.3008 20.6854C11.5053 20.6854 11.6775 20.61 11.8175 20.4593C11.9574 20.3087 12.0273 20.1095 12.0273 19.862C12.0273 19.6144 11.9574 19.4261 11.8175 19.2754C11.6775 19.1247 11.5053 19.0493 11.3008 19.0493C11.0963 19.0493 10.9241 19.1247 10.7788 19.2807C10.6336 19.4368 10.5582 19.6306 10.5582 19.8727C10.5582 20.1149 10.6336 20.3033 10.7788 20.4593C10.9241 20.61 11.1017 20.6908 11.3008 20.6908V20.6854Z" fill="#68A500"/>
<path d="M15.8373 21.1321H15.2615V20.8199C15.057 21.0621 14.7826 21.1859 14.4382 21.1859C14.1852 21.1859 13.97 21.1159 13.7978 20.976C13.6256 20.8361 13.5341 20.6423 13.5341 20.3894C13.5341 20.1149 13.631 19.9104 13.8193 19.7705C14.0077 19.6306 14.2552 19.5606 14.5673 19.5606C14.8149 19.5606 15.0516 19.5983 15.2723 19.6682V19.6198C15.2723 19.4422 15.2185 19.3077 15.1108 19.2162C15.0032 19.1247 14.8471 19.0762 14.648 19.0762C14.4166 19.0762 14.1745 19.1301 13.9216 19.2377L13.7655 18.7695C14.0776 18.6296 14.4005 18.5596 14.7341 18.5596C15.1055 18.5596 15.3799 18.6511 15.5683 18.8394C15.7566 19.0278 15.8481 19.2915 15.8481 19.6359V21.1428L15.8373 21.1321ZM15.2723 20.2118V20.0665C15.1001 19.9965 14.9063 19.9642 14.6911 19.9642C14.5081 19.9642 14.3628 20.0019 14.2606 20.0719C14.1583 20.1418 14.1045 20.2441 14.1045 20.3679C14.1045 20.4809 14.153 20.5724 14.2444 20.6423C14.3359 20.7123 14.4543 20.7446 14.5942 20.7446C14.788 20.7446 14.9494 20.6961 15.0785 20.5939C15.2077 20.497 15.2669 20.3679 15.2669 20.2064L15.2723 20.2118Z" fill="#68A500"/>
<path d="M18.2428 21.1913C17.8338 21.1913 17.5109 21.0621 17.2795 20.8038C17.0481 20.5455 16.9351 20.1795 16.9351 19.7113C16.9351 19.5606 16.9351 19.4261 16.9459 19.313C16.9513 19.2 16.9674 19.0762 16.9943 18.9417C17.0158 18.8072 17.0535 18.6941 17.0966 18.5919C17.145 18.495 17.2042 18.3982 17.2741 18.3067C17.3441 18.2152 17.441 18.1398 17.554 18.0752C17.667 18.0107 17.8015 17.9676 17.9522 17.9353L19.3406 17.6447L19.4374 18.1129L18.0491 18.4143C17.8177 18.4627 17.6508 18.5488 17.554 18.6726C17.4517 18.7964 17.3979 18.9525 17.3818 19.1354C17.4571 19.0063 17.5809 18.8933 17.7477 18.8018C17.9145 18.7049 18.119 18.6619 18.3612 18.6619C18.6894 18.6619 18.9746 18.7803 19.2168 19.0224C19.4536 19.2592 19.5774 19.5552 19.5774 19.8996C19.5774 20.2441 19.4536 20.5616 19.2007 20.8145C18.9477 21.0675 18.6356 21.1966 18.2535 21.1966L18.2428 21.1913ZM18.2535 20.6854C18.4688 20.6854 18.6464 20.61 18.7809 20.4593C18.9155 20.3087 18.9854 20.1257 18.9854 19.905C18.9854 19.6844 18.9155 19.5014 18.7702 19.3507C18.6249 19.2 18.4527 19.1247 18.2428 19.1247C18.0329 19.1247 17.8553 19.2 17.7208 19.3507C17.5863 19.5014 17.5163 19.6898 17.5163 19.9104C17.5163 20.1311 17.5863 20.314 17.7262 20.4647C17.8661 20.6154 18.0437 20.6908 18.2482 20.6908L18.2535 20.6854Z" fill="#68A500"/>
<path d="M21.8537 21.1913C21.4662 21.1913 21.1487 21.0621 20.8904 20.8038C20.6321 20.5455 20.5029 20.2333 20.5029 19.862C20.5029 19.4906 20.6321 19.1785 20.8904 18.9202C21.1487 18.6619 21.4716 18.5327 21.859 18.5327C22.2465 18.5327 22.564 18.6619 22.8223 18.9202C23.0806 19.1785 23.2098 19.4906 23.2098 19.862C23.2098 20.2333 23.0806 20.5401 22.8223 20.7984C22.564 21.0567 22.2357 21.1859 21.8483 21.1859L21.8537 21.1913ZM21.8644 20.6854C22.0958 20.6854 22.2842 20.6047 22.4241 20.4486C22.564 20.2925 22.634 20.0988 22.634 19.8674C22.634 19.6359 22.5586 19.4476 22.4133 19.2861C22.268 19.1301 22.0797 19.0493 21.8537 19.0493C21.6277 19.0493 21.4393 19.1301 21.2994 19.2861C21.1595 19.4422 21.0895 19.6359 21.0895 19.8674C21.0895 20.0988 21.1649 20.2871 21.3102 20.4432C21.4554 20.6046 21.6438 20.6854 21.8644 20.6854Z" fill="#68A500"/>
<path d="M24.7381 21.1321V19.087H23.9201V18.5865H26.1426V19.087H25.3246V21.1321H24.7381Z" fill="#68A500"/>
<path d="M27.0843 21.1321V18.5865H27.6602V19.8028L28.7687 18.5865H29.4521L28.4674 19.6575L29.5382 21.1321H28.8494L28.0799 20.0826L27.6655 20.5185V21.1321H27.0843Z" fill="#68A500"/>
<path d="M32.4603 21.1321H31.8845V20.8199C31.68 21.0621 31.4056 21.1859 31.0612 21.1859C30.8082 21.1859 30.593 21.1159 30.4208 20.976C30.2486 20.8361 30.1571 20.6423 30.1571 20.3894C30.1571 20.1149 30.254 19.9104 30.4423 19.7705C30.6307 19.6306 30.8782 19.5606 31.1903 19.5606C31.4379 19.5606 31.6746 19.5983 31.8953 19.6682V19.6198C31.8953 19.4422 31.8415 19.3077 31.7338 19.2162C31.6262 19.1247 31.4701 19.0762 31.271 19.0762C31.0396 19.0762 30.7975 19.1301 30.5446 19.2377L30.3885 18.7695C30.7006 18.6296 31.0235 18.5596 31.3571 18.5596C31.7285 18.5596 32.0029 18.6511 32.1912 18.8394C32.3796 19.0278 32.4711 19.2915 32.4711 19.6359V21.1428L32.4603 21.1321ZM31.8953 20.2118V20.0665C31.7231 19.9965 31.5293 19.9642 31.3141 19.9642C31.1311 19.9642 30.9858 20.0019 30.8836 20.0719C30.7813 20.1418 30.7275 20.2441 30.7275 20.3679C30.7275 20.4809 30.776 20.5724 30.8674 20.6423C30.9589 20.7123 31.0773 20.7446 31.2172 20.7446C31.411 20.7446 31.5724 20.6961 31.7015 20.5939C31.8307 20.497 31.8899 20.3679 31.8899 20.2064L31.8953 20.2118Z" fill="#68A500"/>
<path d="M36.7385 21.1913C36.3618 21.1913 36.0497 21.0621 35.8021 20.8092C35.5546 20.5562 35.4254 20.2441 35.4254 19.8781V19.8674C35.4254 19.5014 35.5492 19.1893 35.8021 18.9309C36.0551 18.6726 36.3672 18.5381 36.7439 18.5381C37.1529 18.5381 37.4919 18.6834 37.761 18.9794L37.4004 19.3669C37.1959 19.157 36.9807 19.0493 36.7385 19.0493C36.5286 19.0493 36.3564 19.1301 36.2165 19.2861C36.0766 19.4422 36.0066 19.6359 36.0066 19.8566V19.8674C36.0066 20.0988 36.0766 20.2925 36.2219 20.4486C36.3672 20.6046 36.5448 20.6854 36.7708 20.6854C37.0076 20.6854 37.2228 20.5777 37.4327 20.3679L37.7825 20.7123C37.6426 20.8684 37.4919 20.9867 37.3304 21.0675C37.169 21.1482 36.9699 21.1913 36.7385 21.1913Z" fill="#68A500"/>
<path d="M40.9037 21.1321H40.3279V20.8199C40.1234 21.0621 39.8489 21.1859 39.5045 21.1859C39.2516 21.1859 39.0363 21.1159 38.8641 20.976C38.6919 20.8361 38.6004 20.6423 38.6004 20.3894C38.6004 20.1149 38.6973 19.9104 38.8857 19.7705C39.074 19.6306 39.3215 19.5606 39.6337 19.5606C39.8812 19.5606 40.118 19.5983 40.3386 19.6682V19.6198C40.3386 19.4422 40.2848 19.3077 40.1772 19.2162C40.0695 19.1247 39.9135 19.0762 39.7144 19.0762C39.483 19.0762 39.2408 19.1301 38.9879 19.2377L38.8318 18.7695C39.144 18.6296 39.4668 18.5596 39.8005 18.5596C40.1718 18.5596 40.4462 18.6511 40.6346 18.8394C40.8229 19.0278 40.9144 19.2915 40.9144 19.6359V21.1428L40.9037 21.1321ZM40.3386 20.2118V20.0665C40.1664 19.9965 39.9727 19.9642 39.7574 19.9642C39.5745 19.9642 39.4292 20.0019 39.3269 20.0719C39.2247 20.1418 39.1709 20.2441 39.1709 20.3679C39.1709 20.4809 39.2193 20.5724 39.3108 20.6423C39.4023 20.7123 39.5206 20.7446 39.6606 20.7446C39.8543 20.7446 40.0157 20.6961 40.1449 20.5939C40.274 20.497 40.3332 20.3679 40.3332 20.2064L40.3386 20.2118Z" fill="#68A500"/>
<path d="M42.0768 21.1321V18.5865H42.6472V20.2925C43.18 19.5337 43.5836 18.9686 43.8526 18.5865H44.4015V21.1321H43.8365V19.4368L42.6257 21.1321H42.0768ZM43.745 18.1129C43.6105 18.2313 43.4437 18.2959 43.2392 18.2959C43.0347 18.2959 42.8679 18.2367 42.7333 18.1129C42.5988 17.9891 42.5127 17.8277 42.4804 17.6232L42.8356 17.5532C42.9055 17.7739 43.0347 17.8815 43.2338 17.8815C43.4329 17.8815 43.5674 17.7739 43.632 17.5532L43.9818 17.6232C43.9495 17.8277 43.8688 17.9945 43.7342 18.1129H43.745Z" fill="#68A500"/>
<path d="M46.1612 21.1321V19.087H45.3433V18.5865H47.5658V19.087H46.7478V21.1321H46.1612Z" fill="#68A500"/>
<path d="M49.6214 21.1913C49.234 21.1913 48.9165 21.0621 48.6582 20.8038C48.3999 20.5455 48.2707 20.2333 48.2707 19.862C48.2707 19.4906 48.3999 19.1785 48.6582 18.9202C48.9165 18.6619 49.2394 18.5327 49.6268 18.5327C50.0143 18.5327 50.3318 18.6619 50.5901 18.9202C50.8484 19.1785 50.9776 19.4906 50.9776 19.862C50.9776 20.2333 50.8484 20.5401 50.5901 20.7984C50.3318 21.0567 50.0035 21.1859 49.6161 21.1859L49.6214 21.1913ZM49.6322 20.6854C49.8636 20.6854 50.0519 20.6047 50.1919 20.4486C50.3318 20.2925 50.4017 20.0988 50.4017 19.8674C50.4017 19.6359 50.3264 19.4476 50.1811 19.2861C50.0358 19.1301 49.8475 19.0493 49.6214 19.0493C49.3954 19.0493 49.2071 19.1301 49.0672 19.2861C48.9272 19.4422 48.8573 19.6359 48.8573 19.8674C48.8573 20.0988 48.9326 20.2871 49.0779 20.4432C49.2232 20.6046 49.4116 20.6854 49.6322 20.6854Z" fill="#68A500"/>
<path d="M52.0592 21.1321V18.5865H53.3669C53.6198 18.5865 53.8243 18.6457 53.975 18.7587C54.1256 18.8717 54.201 19.0278 54.201 19.2216C54.201 19.4853 54.0664 19.6844 53.792 19.8028C54.1418 19.905 54.3194 20.1149 54.3194 20.4378C54.3194 20.6531 54.2333 20.8199 54.0664 20.9437C53.8996 21.0675 53.6682 21.1267 53.383 21.1267H52.0646L52.0592 21.1321ZM52.6296 19.6413H53.227C53.3453 19.6413 53.4368 19.6144 53.5068 19.5552C53.5767 19.496 53.609 19.4207 53.609 19.3292C53.609 19.2431 53.5767 19.1731 53.5175 19.1193C53.4584 19.0655 53.3615 19.0386 53.2377 19.0386H52.6296V19.6413ZM52.6296 20.6746H53.2915C53.4314 20.6746 53.5391 20.6477 53.6144 20.5831C53.6897 20.5239 53.7274 20.4432 53.7274 20.3463C53.7274 20.2495 53.6898 20.1741 53.609 20.1203C53.5283 20.0665 53.4153 20.0396 53.2646 20.0396H52.635V20.6746H52.6296Z" fill="#68A500"/>
<path d="M55.3418 21.1321V20.4701H55.9822V21.1321H55.3418Z" fill="#68A500"/>
<path d="M59.0872 21.1321V18.5865H59.663L60.4595 19.7651L61.2613 18.5865H61.8371V21.1321H61.2505V19.4368L60.4487 20.5777L59.6523 19.4476V21.1321H59.0819H59.0872Z" fill="#68A500"/>
<path d="M65.1843 21.1321H64.6085V20.8199C64.404 21.0621 64.1296 21.1859 63.7852 21.1859C63.5322 21.1859 63.317 21.1159 63.1448 20.976C62.9726 20.8361 62.8811 20.6423 62.8811 20.3894C62.8811 20.1149 62.978 19.9104 63.1663 19.7705C63.3547 19.6306 63.6022 19.5606 63.9143 19.5606C64.1619 19.5606 64.3986 19.5983 64.6193 19.6682V19.6198C64.6193 19.4422 64.5655 19.3077 64.4578 19.2162C64.3502 19.1247 64.1941 19.0762 63.995 19.0762C63.7636 19.0762 63.5215 19.1301 63.2686 19.2377L63.1125 18.7695C63.4246 18.6296 63.7475 18.5596 64.0811 18.5596C64.4525 18.5596 64.7269 18.6511 64.9152 18.8394C65.1036 19.0278 65.1951 19.2915 65.1951 19.6359V21.1428L65.1843 21.1321ZM64.6193 20.2118V20.0665C64.4471 19.9965 64.2533 19.9642 64.0381 19.9642C63.8551 19.9642 63.7098 20.0019 63.6076 20.0719C63.5053 20.1418 63.4515 20.2441 63.4515 20.3679C63.4515 20.4809 63.5 20.5724 63.5914 20.6423C63.6829 20.7123 63.8013 20.7446 63.9412 20.7446C64.135 20.7446 64.2964 20.6961 64.4255 20.5939C64.5547 20.497 64.6139 20.3679 64.6139 20.2064L64.6193 20.2118Z" fill="#68A500"/>
<path d="M66.3575 18.5919H66.9386V19.017C67.1646 18.6995 67.4499 18.5381 67.7997 18.5381C68.1225 18.5381 68.397 18.6565 68.6338 18.8986C68.8705 19.1354 68.9836 19.4637 68.9836 19.8674C68.9836 20.271 68.8652 20.5885 68.6338 20.8307C68.4024 21.0675 68.1225 21.1913 67.7997 21.1913C67.4499 21.1913 67.1646 21.0406 66.9386 20.7446V21.9124H66.3575V18.5919ZM67.6651 20.6854C67.8696 20.6854 68.0418 20.61 68.1817 20.4593C68.3216 20.3087 68.3916 20.1095 68.3916 19.862C68.3916 19.6144 68.3216 19.4261 68.1817 19.2754C68.0418 19.1247 67.8696 19.0493 67.6651 19.0493C67.4606 19.0493 67.2884 19.1247 67.1431 19.2807C66.9978 19.4368 66.9225 19.6306 66.9225 19.8727C66.9225 20.1149 66.9978 20.3033 67.1431 20.4593C67.2884 20.61 67.466 20.6908 67.6651 20.6908V20.6854Z" fill="#68A500"/>
<path d="M70.0652 21.1321V18.5865H70.641V19.8028L71.7496 18.5865H72.433L71.4482 19.6575L72.5191 21.1321H71.8303L71.0608 20.0826L70.6464 20.5185V21.1321H70.0652Z" fill="#68A500"/>
<path d="M74.4241 21.1913C74.0528 21.1913 73.7407 21.0675 73.4931 20.8199C73.2456 20.5724 73.1218 20.2548 73.1218 19.862C73.1218 19.4906 73.2402 19.1785 73.4716 18.9256C73.7084 18.6672 74.0044 18.5381 74.3649 18.5381C74.7524 18.5381 75.0483 18.6672 75.2636 18.9309C75.4789 19.1946 75.5865 19.5175 75.5865 19.905C75.5865 19.975 75.5865 20.0288 75.5757 20.0665H73.7084C73.7407 20.271 73.8214 20.4271 73.9559 20.5401C74.0905 20.6531 74.2519 20.7123 74.4402 20.7123C74.6932 20.7123 74.9192 20.61 75.1291 20.4109L75.4681 20.7123C75.2044 21.0298 74.86 21.1913 74.4295 21.1913H74.4241ZM73.6976 19.6844H75.0053C74.9838 19.4906 74.9192 19.3292 74.8062 19.2C74.6932 19.0709 74.5425 19.0117 74.3595 19.0117C74.1766 19.0117 74.0366 19.0762 73.9183 19.2C73.7999 19.3238 73.7299 19.4853 73.703 19.6844H73.6976Z" fill="#68A500"/>
<path d="M77.0986 21.1321V19.087H76.2807V18.5865H78.5032V19.087H77.6852V21.1321H77.0986Z" fill="#68A500"/>
<path d="M79.4503 21.1321V18.5865H80.0207V20.2925C80.5534 19.5337 80.9571 18.9686 81.2261 18.5865H81.775V21.1321H81.21V19.4368L79.9992 21.1321H79.4503Z" fill="#68A500"/>
<path d="M82.9858 21.1321V18.5865H83.567V19.6198H84.6863V18.5865H85.2675V21.1321H84.6863V20.1042H83.567V21.1321H82.9858Z" fill="#68A500"/>
<path d="M86.4837 21.1321V18.5865H88.2865V19.087H87.0703V21.1321H86.4837Z" fill="#68A500"/>
<path d="M16.5207 0.91333H12.9045V14.9865H23.2743V11.8113H16.5207V0.91333Z" fill="#68A500"/>
<path d="M44.423 10.0784L40.9251 0.91333H36.9268L42.674 15.0672H46.1127L51.8815 0.91333H47.937L44.423 10.0784Z" fill="#68A500"/>
<path d="M75.5973 0.91333V8.65222L69.4464 0.91333H66.3521V14.9865H69.9092V7.20454L76.1408 14.9865H79.1382V0.91333H75.5973Z" fill="#68A500"/>
<path d="M64.1404 0.91333H53.4476V4.08854H64.1404V0.91333Z" fill="#68A500"/>
<path d="M56.6226 8.18939L53.4476 6.36499V9.5402H64.1404V6.36499H56.6226V8.18939Z" fill="#68A500"/>
<path d="M56.6226 13.6359L53.4476 11.8115V14.9867H64.1404V11.8115H56.6226V13.6359Z" fill="#68A500"/>
<path d="M0 0.91333V4.08854V6.365V9.5402V11.8113V14.9865H3.175H11.0372V11.8113H3.175V9.5402H11.0372V6.365H3.175V4.08854H11.0372V0.91333H3.175H0Z" fill="#68A500"/>
<path d="M25.1473 0.91333V4.08854V6.365V9.5402V11.8113V14.9865H28.3223H35.84V11.8113H28.3223V9.5402H35.84V6.365H28.3223V4.08854H35.84V0.91333H28.3223H25.1473Z" fill="#68A500"/>
</svg>
