<svg width="35" height="35" viewBox="0 0 35 35" fill="none" xmlns="http://www.w3.org/2000/svg">
<path d="M13.0871 0.607893C11.4269 1.05749 9.91021 1.3129 8.28328 0.718104C7.85293 0.560659 7.3701 0.544915 6.91176 0.460944C3.03686 -0.24406 0.01916 2.25582 0.0121625 6.18845C0.0051649 9.77295 -0.0175772 13.3574 0.0261576 16.9419C0.0419021 18.1595 0.153863 19.3893 0.370787 20.5859C1.78604 28.362 8.63141 34.4761 16.4127 34.9607C26.4559 35.5887 34.9772 27.5817 35 17.4965C35.0245 6.06074 24.1345 -2.38181 13.0854 0.606143L13.0871 0.607893ZM29.4456 26.079C27.656 28.4022 25.4798 30.1708 22.7297 31.1995C22.4533 31.3027 22.0037 31.3079 21.7886 31.1505C19.014 29.1107 16.2675 27.0289 14.1945 24.2264C13.9128 23.845 13.7256 23.2852 13.7326 22.8129C13.7886 19.2861 13.9268 15.7594 13.9793 12.2326C13.9863 11.7638 13.7816 11.1532 13.4527 10.8558C13.1606 10.5934 12.4311 10.4657 12.1249 10.6529C11.7051 10.91 11.266 11.5118 11.2467 11.9824C11.1575 14.2514 11.2065 16.5256 11.2065 18.798C11.091 18.8103 10.9773 18.8243 10.8619 18.8365C9.82974 16.683 9.11249 14.4211 8.77311 12.0542C8.57892 10.7019 8.50545 9.33035 8.41973 7.96583C8.355 6.93019 7.86867 6.3074 7.02372 6.29866C6.14202 6.28991 5.60496 6.93369 5.61371 8.02356C5.64695 12.4967 6.66859 16.7355 8.65065 20.7434C8.7801 21.004 8.90256 21.2664 9.02502 21.5288C9.03377 21.5481 9.00752 21.5831 8.96729 21.6898C8.369 21.6898 7.73572 21.674 7.10419 21.6933C6.20675 21.7213 5.62246 22.2776 5.61371 23.0753C5.60496 23.866 6.198 24.4626 7.07795 24.4836C8.15557 24.5098 9.23669 24.4678 10.3143 24.5081C10.5907 24.5186 10.9651 24.6533 11.1155 24.8614C13.0871 27.5747 15.4435 29.8962 18.1201 31.9045C18.1586 31.9342 18.1673 32.0007 18.2268 32.1284C16.5596 32.2963 14.9729 32.0462 13.4195 31.5738C7.31761 29.7195 2.9144 23.8975 2.82868 17.514C2.77795 13.7248 2.80944 9.93389 2.81818 6.14296C2.82343 4.05244 4.25618 2.81037 6.30822 3.18824C16.969 5.15456 24.6768 11.0168 29.4107 20.7766C29.6013 21.1685 29.7116 21.6076 29.9407 21.9732C30.8906 23.4882 30.4655 24.7547 29.4474 26.0773L29.4456 26.079ZM31.9963 19.4278C28.3768 12.0804 22.9152 6.61705 15.5642 3.00456C20.3611 2.42551 24.5316 3.7463 27.9359 7.18385C31.2895 10.5724 32.5631 14.701 31.9963 19.4278Z" fill="#374D20"/>
<path d="M29.4089 20.7783C24.6751 11.0185 16.9673 5.15626 6.30649 3.18994C4.25445 2.81207 2.81995 4.05414 2.81645 6.14466C2.80771 9.93559 2.77797 13.7265 2.82695 17.5157C2.91092 23.8992 7.31413 29.7212 13.4178 31.5755C14.9695 32.0479 16.5562 32.298 18.2251 32.1301C18.1656 32.0024 18.1569 31.9342 18.1184 31.9062C15.4418 29.8979 13.0854 27.5764 11.1138 24.8631C10.9634 24.655 10.589 24.5203 10.3126 24.5098C9.23496 24.4695 8.15559 24.5098 7.07622 24.4853C6.19627 24.4643 5.60323 23.8677 5.61198 23.077C5.62073 22.2793 6.20502 21.7247 7.10246 21.695C7.73399 21.674 8.36552 21.6915 8.96556 21.6915C9.00579 21.5848 9.03204 21.5498 9.02329 21.5305C8.90083 21.2664 8.77837 21.004 8.64892 20.7451C6.66686 16.7372 5.64522 12.4984 5.61198 8.02526C5.60323 6.93539 6.14029 6.29161 7.02199 6.30036C7.86694 6.3091 8.35327 6.93189 8.418 7.96753C8.50372 9.33205 8.57544 10.7036 8.77138 12.0559C9.11251 14.4228 9.82801 16.6847 10.8601 18.8382C10.9756 18.826 11.0893 18.812 11.2048 18.7997C11.2048 16.5273 11.1558 14.2531 11.245 11.9841C11.2643 11.5135 11.7034 10.9117 12.1232 10.6546C12.4294 10.4674 13.1588 10.5934 13.451 10.8575C13.7799 11.1549 13.9846 11.7637 13.9776 12.2343C13.9251 15.7611 13.7869 19.2878 13.7309 22.8146C13.7239 23.2869 13.9093 23.8467 14.1927 24.2281C16.2658 27.0306 19.0141 29.1124 21.7868 31.1522C22.002 31.3096 22.4516 31.3044 22.728 31.2012C25.478 30.1725 27.6543 28.4039 29.4439 26.0807C30.4621 24.7582 30.8872 23.4916 29.9372 21.9766C29.7081 21.611 29.5979 21.1737 29.4072 20.7801L29.4089 20.7783Z" fill="#B5FF00"/>
<path d="M15.5642 3.0027C22.9151 6.61519 28.375 12.0785 31.9962 19.426C32.563 14.6991 31.2895 10.5688 27.9359 7.18199C24.5333 3.74444 20.3628 2.42365 15.5642 3.0027Z" fill="#5B9E44"/>
</svg>
