<svg width="34" height="34" viewBox="0 0 34 34" fill="none" xmlns="http://www.w3.org/2000/svg">
<path d="M12.3949 0.57574C10.8225 1.00155 9.38604 1.24345 7.84516 0.680122C7.43757 0.531004 6.98028 0.516093 6.54618 0.436563C2.87623 -0.231152 0.0181466 2.1365 0.0115192 5.86113C0.00489172 9.25603 -0.0166475 12.6509 0.0247741 16.0459C0.0396858 17.199 0.145725 18.3638 0.351176 19.4971C1.69158 26.8618 8.17487 32.6526 15.5446 33.1115C25.0566 33.7063 33.1272 26.1229 33.1487 16.5711C33.1719 5.74018 22.858 -2.25584 12.3932 0.574083L12.3949 0.57574ZM27.8882 24.6996C26.1932 26.8999 24.1321 28.575 21.5275 29.5493C21.2657 29.647 20.8399 29.652 20.6361 29.5029C18.0083 27.571 15.4071 25.5993 13.4437 22.945C13.1769 22.5838 12.9997 22.0536 13.0063 21.6063C13.0593 18.266 13.1902 14.9258 13.2399 11.5856C13.2465 11.1415 13.0527 10.5633 12.7412 10.2816C12.4645 10.0331 11.7736 9.91215 11.4836 10.0894C11.086 10.333 10.6701 10.903 10.6519 11.3486C10.5674 13.4976 10.6138 15.6515 10.6138 17.8038C10.5044 17.8154 10.3967 17.8286 10.2874 17.8402C9.30982 15.8006 8.63051 13.6583 8.30908 11.4166C8.12517 10.1358 8.05558 8.83685 7.97439 7.5445C7.91309 6.56364 7.45248 5.97379 6.65222 5.96551C5.81716 5.95722 5.3085 6.56695 5.31679 7.59917C5.34827 11.8358 6.31588 15.8503 8.1931 19.6462C8.31571 19.8931 8.43169 20.1416 8.54767 20.3901C8.55595 20.4084 8.5311 20.4415 8.49299 20.5426C7.92634 20.5426 7.32656 20.5277 6.72843 20.5459C5.87846 20.5724 5.32507 21.0993 5.31679 21.8548C5.3085 22.6037 5.87018 23.1687 6.70358 23.1886C7.72421 23.2134 8.74815 23.1737 9.76877 23.2118C10.0306 23.2217 10.3851 23.3493 10.5276 23.5465C12.3949 26.1163 14.6267 28.3149 17.1617 30.217C17.1981 30.2451 17.2064 30.3081 17.2628 30.4291C15.6838 30.5881 14.181 30.3512 12.7097 29.9038C6.93057 28.1476 2.76025 22.6335 2.67907 16.5876C2.63102 12.9989 2.66084 9.40847 2.66912 5.81805C2.67409 3.8381 4.03106 2.66173 5.97456 3.01961C16.0715 4.88192 23.3716 10.4341 27.8551 19.6777C28.0357 20.0488 28.14 20.4647 28.3571 20.811C29.2568 22.2458 28.8542 23.4454 27.8899 24.698L27.8882 24.6996ZM30.3039 18.4003C26.8759 11.4414 21.7031 6.26706 14.741 2.84564C19.2841 2.29722 23.2341 3.54815 26.4583 6.80388C29.6345 10.0132 30.8407 13.9234 30.3039 18.4003Z" fill="white"/>
<path d="M27.8534 19.6794C23.3699 10.4357 16.0698 4.88359 5.97286 3.02128C4.02936 2.6634 2.67074 3.83977 2.66742 5.81972C2.65914 9.41014 2.63097 13.0006 2.67737 16.5893C2.75689 22.6352 6.92721 28.1492 12.708 29.9055C14.1776 30.3529 15.6804 30.5898 17.2611 30.4307C17.2047 30.3098 17.1964 30.2452 17.16 30.2187C14.625 28.3166 12.3932 26.1179 10.5259 23.5481C10.3834 23.351 10.0289 23.2234 9.76707 23.2134C8.74645 23.1753 7.72416 23.2134 6.70188 23.1903C5.86848 23.1704 5.3068 22.6054 5.31509 21.8565C5.32337 21.101 5.87676 20.5757 6.72673 20.5476C7.32486 20.5277 7.92299 20.5442 8.49129 20.5442C8.5294 20.4432 8.55425 20.41 8.54597 20.3918C8.42999 20.1416 8.31401 19.8931 8.1914 19.6479C6.31418 15.852 5.34657 11.8374 5.31509 7.60084C5.3068 6.56862 5.81546 5.95889 6.65052 5.96718C7.45078 5.97546 7.91139 6.56531 7.97269 7.54617C8.05388 8.83852 8.12181 10.1375 8.30738 11.4183C8.63047 13.66 9.30812 15.8023 10.2857 17.8419C10.395 17.8303 10.5027 17.8171 10.6121 17.8055C10.6121 15.6532 10.5657 13.4993 10.6502 11.3503C10.6684 10.9046 11.0843 10.3347 11.4819 10.0911C11.7719 9.91382 12.4628 10.0331 12.7395 10.2833C13.051 10.565 13.2448 11.1416 13.2382 11.5873C13.1885 14.9275 13.0576 18.2677 13.0046 21.608C12.998 22.0553 13.1736 22.5855 13.442 22.9467C15.4054 25.601 18.0083 27.5726 20.6344 29.5046C20.8382 29.6537 21.264 29.6487 21.5258 29.5509C24.1304 28.5767 26.1915 26.9016 27.8865 24.7013C28.8508 23.4487 29.2534 22.2492 28.3537 20.8143C28.1367 20.468 28.0323 20.0538 27.8517 19.681L27.8534 19.6794Z" fill="#5B9E44"/>
<path d="M14.741 2.84395C21.7032 6.26536 26.8742 11.4397 30.3039 18.3986C30.8407 13.9217 29.6346 10.0099 26.4584 6.80219C23.2358 3.54645 19.2858 2.29552 14.741 2.84395Z" fill="#5B9E44"/>
</svg>
