<svg display="none" xmlns="http://www.w3.org/2000/svg">

	<symbol id="next" viewBox="0 0 16 27">
		<path d="M2 2L14 13.5L2 25" stroke-width="4" stroke-linecap="round" stroke-linejoin="round" />
	</symbol>

	<symbol id="arrow-right" viewBox="0 0 32 32">
		<path
			d="M25.5439 16C25.5439 16.1655 25.4777 16.3242 25.3601 16.4406L18.3333 23.3995C18.09 23.6404 17.6974 23.6385 17.4565 23.3952C17.2155 23.1518 17.2175 22.7592 17.4608 22.5182L23.4165 16.6201L7.35685 16.6201C7.01443 16.6201 6.73684 16.3425 6.73684 16C6.73684 15.6575 7.01443 15.3799 7.35685 15.3799L23.4165 15.3799L17.4608 9.48178C17.2175 9.24081 17.2155 8.84819 17.4565 8.60484C17.6974 8.36149 18.09 8.35955 18.3333 8.60052L25.3601 15.5594C25.4777 15.6758 25.5439 15.8345 25.5439 16Z" />
		<path fill-rule="evenodd" clip-rule="evenodd"
			d="M32 16C32 24.8366 24.8366 32 16 32C7.16344 32 0 24.8366 0 16C0 7.16344 7.16344 0 16 0C24.8366 0 32 7.16344 32 16ZM30.8772 16C30.8772 24.2164 24.2164 30.8772 16 30.8772C7.78355 30.8772 1.12281 24.2164 1.12281 16C1.12281 7.78355 7.78355 1.12281 16 1.12281C24.2164 1.12281 30.8772 7.78355 30.8772 16Z" />
	</symbol>

	<symbol id="search" viewBox="0 0 24 24">
		<path
			d="M23.3397 23.3397C23.1305 23.549 22.882 23.7151 22.6086 23.8284C22.3352 23.9417 22.0422 24 21.7462 24C21.4502 24 21.1572 23.9417 20.8837 23.8284C20.6103 23.7151 20.3619 23.549 20.1527 23.3397L16.1753 19.3623C14.539 20.4096 12.6052 21.0362 10.5181 21.0362C4.70911 21.0362 0 16.3271 0 10.5181C0 4.70911 4.70911 0 10.5181 0C16.3271 0 21.0362 4.70911 21.0362 10.5181C21.0362 12.6052 20.4096 14.539 19.3623 16.1753L23.3397 20.1527C23.549 20.3619 23.7151 20.6103 23.8284 20.8837C23.9417 21.1572 24 21.4502 24 21.7462C24 22.0422 23.9417 22.3352 23.8284 22.6086C23.7151 22.882 23.549 23.1305 23.3397 23.3397ZM10.5181 3.00517C6.36947 3.00517 3.00517 6.36796 3.00517 10.5181C3.00517 14.6683 6.36947 18.031 10.5181 18.031C14.6683 18.031 18.031 14.6683 18.031 10.5181C18.031 6.36796 14.6683 3.00517 10.5181 3.00517Z" />
	</symbol>

	<symbol id="burger" viewBox="0 0 27 25">
		<path d="M0 10.3448H27V14.6552H0V10.3448Z"/>
		<path d="M0 0H27V4.31034H0V0Z"/>
		<path d="M0 20.6897H27V25H0V20.6897Z"/>
	</symbol>

</svg>