<svg display="none" xmlns="http://www.w3.org/2000/svg">

	<symbol id="next" viewBox="0 0 16 27">
		<path d="M2 2L14 13.5L2 25" stroke-width="4" stroke-linecap="round" stroke-linejoin="round" />
	</symbol>

	<symbol id="arrow-right" viewBox="0 0 32 32">
		<path
			d="M25.5439 16C25.5439 16.1655 25.4777 16.3242 25.3601 16.4406L18.3333 23.3995C18.09 23.6404 17.6974 23.6385 17.4565 23.3952C17.2155 23.1518 17.2175 22.7592 17.4608 22.5182L23.4165 16.6201L7.35685 16.6201C7.01443 16.6201 6.73684 16.3425 6.73684 16C6.73684 15.6575 7.01443 15.3799 7.35685 15.3799L23.4165 15.3799L17.4608 9.48178C17.2175 9.24081 17.2155 8.84819 17.4565 8.60484C17.6974 8.36149 18.09 8.35955 18.3333 8.60052L25.3601 15.5594C25.4777 15.6758 25.5439 15.8345 25.5439 16Z" />
		<path fill-rule="evenodd" clip-rule="evenodd"
			d="M32 16C32 24.8366 24.8366 32 16 32C7.16344 32 0 24.8366 0 16C0 7.16344 7.16344 0 16 0C24.8366 0 32 7.16344 32 16ZM30.8772 16C30.8772 24.2164 24.2164 30.8772 16 30.8772C7.78355 30.8772 1.12281 24.2164 1.12281 16C1.12281 7.78355 7.78355 1.12281 16 1.12281C24.2164 1.12281 30.8772 7.78355 30.8772 16Z" />
	</symbol>

	<symbol id="search" viewBox="0 0 24 24">
		<path
			d="M23.3397 23.3397C23.1305 23.549 22.882 23.7151 22.6086 23.8284C22.3352 23.9417 22.0422 24 21.7462 24C21.4502 24 21.1572 23.9417 20.8837 23.8284C20.6103 23.7151 20.3619 23.549 20.1527 23.3397L16.1753 19.3623C14.539 20.4096 12.6052 21.0362 10.5181 21.0362C4.70911 21.0362 0 16.3271 0 10.5181C0 4.70911 4.70911 0 10.5181 0C16.3271 0 21.0362 4.70911 21.0362 10.5181C21.0362 12.6052 20.4096 14.539 19.3623 16.1753L23.3397 20.1527C23.549 20.3619 23.7151 20.6103 23.8284 20.8837C23.9417 21.1572 24 21.4502 24 21.7462C24 22.0422 23.9417 22.3352 23.8284 22.6086C23.7151 22.882 23.549 23.1305 23.3397 23.3397ZM10.5181 3.00517C6.36947 3.00517 3.00517 6.36796 3.00517 10.5181C3.00517 14.6683 6.36947 18.031 10.5181 18.031C14.6683 18.031 18.031 14.6683 18.031 10.5181C18.031 6.36796 14.6683 3.00517 10.5181 3.00517Z" />
	</symbol>

	<symbol id="burger" viewBox="0 0 27 25">
		<path d="M0 10.3448H27V14.6552H0V10.3448Z" />
		<path d="M0 0H27V4.31034H0V0Z" />
		<path d="M0 20.6897H27V25H0V20.6897Z" />
	</symbol>

	<symbol id="location" viewBox="0 0 8 11">
		<path fill-rule="evenodd" clip-rule="evenodd"
			d="M4 11C4 11 8 6.38584 8 4.11382C8 1.8418 6.20914 0 4 0C1.79086 0 0 1.8418 0 4.11382C0 6.38584 4 11 4 11ZM4 5.72358C4.96049 5.72358 5.73913 4.9228 5.73913 3.93496C5.73913 2.94711 4.96049 2.14634 4 2.14634C3.03951 2.14634 2.26087 2.94711 2.26087 3.93496C2.26087 4.9228 3.03951 5.72358 4 5.72358Z" />
	</symbol>


	<symbol id="print" viewBox="0 0 18 18">
		<path
			d="M4.5 7.2C4.322 7.2 4.14799 7.25278 3.99999 7.35168C3.85198 7.45057 3.73663 7.59113 3.66851 7.75559C3.60039 7.92004 3.58257 8.101 3.61729 8.27558C3.65202 8.45016 3.73774 8.61053 3.8636 8.7364C3.98947 8.86226 4.14984 8.94798 4.32442 8.98271C4.499 9.01743 4.67996 8.99961 4.84442 8.93149C5.00887 8.86337 5.14943 8.74802 5.24832 8.60001C5.34722 8.45201 5.4 8.278 5.4 8.1C5.4 7.86131 5.30518 7.63239 5.1364 7.4636C4.96761 7.29482 4.7387 7.2 4.5 7.2ZM15.3 3.6H14.4V0.9C14.4 0.661305 14.3052 0.432387 14.1364 0.263604C13.9676 0.0948211 13.7387 0 13.5 0H4.5C4.26131 0 4.03239 0.0948211 3.8636 0.263604C3.69482 0.432387 3.6 0.661305 3.6 0.9V3.6H2.7C1.98392 3.6 1.29716 3.88446 0.790812 4.39081C0.284464 4.89716 0 5.58392 0 6.3V11.7C0 12.4161 0.284464 13.1028 0.790812 13.6092C1.29716 14.1155 1.98392 14.4 2.7 14.4H3.6V17.1C3.6 17.3387 3.69482 17.5676 3.8636 17.7364C4.03239 17.9052 4.26131 18 4.5 18H13.5C13.7387 18 13.9676 17.9052 14.1364 17.7364C14.3052 17.5676 14.4 17.3387 14.4 17.1V14.4H15.3C16.0161 14.4 16.7028 14.1155 17.2092 13.6092C17.7155 13.1028 18 12.4161 18 11.7V6.3C18 5.58392 17.7155 4.89716 17.2092 4.39081C16.7028 3.88446 16.0161 3.6 15.3 3.6ZM5.4 1.8H12.6V3.6H5.4V1.8ZM12.6 16.2H5.4V12.6H12.6V16.2ZM16.2 11.7C16.2 11.9387 16.1052 12.1676 15.9364 12.3364C15.7676 12.5052 15.5387 12.6 15.3 12.6H14.4V11.7C14.4 11.4613 14.3052 11.2324 14.1364 11.0636C13.9676 10.8948 13.7387 10.8 13.5 10.8H4.5C4.26131 10.8 4.03239 10.8948 3.8636 11.0636C3.69482 11.2324 3.6 11.4613 3.6 11.7V12.6H2.7C2.46131 12.6 2.23239 12.5052 2.0636 12.3364C1.89482 12.1676 1.8 11.9387 1.8 11.7V6.3C1.8 6.06131 1.89482 5.83239 2.0636 5.6636C2.23239 5.49482 2.46131 5.4 2.7 5.4H15.3C15.5387 5.4 15.7676 5.49482 15.9364 5.6636C16.1052 5.83239 16.2 6.06131 16.2 6.3V11.7Z" />
	</symbol>

	<symbol id="share" viewBox="0 0 18 17">
		<path
			d="M17.7365 7.83226L10.5364 0.276528C10.4105 0.144482 10.2502 0.0545628 10.0756 0.0181371C9.90108 -0.0182887 9.72015 0.000414575 9.55571 0.0718824C9.39128 0.14335 9.25073 0.264374 9.15184 0.419653C9.05294 0.574933 9.00013 0.757497 9.0001 0.944266V4.2924C6.54153 4.53116 4.25635 5.72408 2.59175 7.63773C0.927148 9.55138 0.00294459 12.048 0 14.639V16.0557C0.000142072 16.2518 0.0584193 16.4429 0.166748 16.6027C0.275078 16.7624 0.428089 16.8828 0.604559 16.9471C0.78103 17.0115 0.972212 17.0166 1.15159 16.9618C1.33097 16.907 1.48964 16.795 1.60562 16.6413C2.48735 15.541 3.56922 14.636 4.788 13.9794C6.00678 13.3228 7.33804 12.9277 8.70399 12.8172C8.74899 12.8115 8.8615 12.802 9.0001 12.7926V16.0557C9.00013 16.2425 9.05294 16.4251 9.15184 16.5803C9.25073 16.7356 9.39128 16.8566 9.55571 16.9281C9.72015 16.9996 9.90108 17.0183 10.0756 16.9819C10.2502 16.9454 10.4105 16.8555 10.5364 16.7235L17.7365 9.16774C17.9052 8.99063 18 8.75044 18 8.5C18 8.24956 17.9052 8.00938 17.7365 7.83226ZM10.8001 13.7758V11.8056C10.8001 11.5551 10.7053 11.3149 10.5365 11.1378C10.3677 10.9607 10.1388 10.8612 9.90011 10.8612C9.6706 10.8612 8.73369 10.9084 8.49429 10.9414C6.06864 11.176 3.75972 12.1431 1.84682 13.7257C2.06394 11.6427 3.00562 9.7168 4.49155 8.31693C5.97748 6.91705 7.90324 6.14152 9.90011 6.13883C10.1388 6.13883 10.3677 6.03933 10.5365 5.86221C10.7053 5.68508 10.8001 5.44485 10.8001 5.19437V3.22421L15.8276 8.5L10.8001 13.7758Z" />
	</symbol>

	<symbol id="download" viewBox="0 0 15 18">
		<path
			d="M7.50001 0C7.21888 0.00030742 6.94935 0.118963 6.75056 0.329929C6.55177 0.540896 6.43997 0.826939 6.43968 1.12529V9.49703L5.02645 7.99723C4.53568 7.4909 3.90484 7.61981 3.53882 8.00884C3.17224 8.39787 3.05023 9.06503 3.53061 9.5911L6.74716 13.0053C6.93865 13.2149 7.20128 13.3322 7.48578 13.3351H7.49508C7.77959 13.3351 8.05424 13.2161 8.24957 13.0082L11.4721 9.58819C11.9487 9.06445 11.8272 8.39729 11.4612 8.00826C11.0952 7.61923 10.4665 7.49148 9.97028 8.00013L8.55979 9.49703V1.12471C8.55935 0.82656 8.44756 0.540753 8.24891 0.329929C8.05025 0.119104 7.78094 0.000460701 7.50001 0Z" />
		<path
			d="M1.06033 11.088C0.779296 11.0883 0.509848 11.2069 0.311076 11.4177C0.112304 11.6286 0.000434439 11.9145 0 12.2127V13.4576C0 15.9625 1.91986 18 4.28016 18H10.7198C13.0801 18 15 15.9619 15 13.4576V12.2127C14.9996 11.9146 14.8878 11.6288 14.6891 11.4179C14.4905 11.2071 14.2212 11.0885 13.9402 11.088C13.6592 11.0883 13.3897 11.2069 13.191 11.4177C12.9922 11.6286 12.8803 11.9145 12.8799 12.2127V13.4576C12.8793 14.0654 12.6515 14.6481 12.2466 15.0779C11.8416 15.5077 11.2925 15.7494 10.7198 15.75H4.28016C3.70746 15.7494 3.15838 15.5077 2.75342 15.0779C2.34845 14.6481 2.12069 14.0654 2.12011 13.4576V12.2127C2.11968 11.9145 2.00781 11.6286 1.80904 11.4177C1.61026 11.2069 1.34082 11.0883 1.05978 11.088H1.06033Z" />
	</symbol>

	<symbol id="route" viewBox="0 0 18 17">
		<path
			d="M15 15.5C16.1046 15.5 17 14.6046 17 13.5C17 12.3954 16.1046 11.5 15 11.5C13.8954 11.5 13 12.3954 13 13.5C13 14.6046 13.8954 15.5 15 15.5Z"
			stroke-width="2" stroke-linecap="round" stroke-linejoin="round" />
		<path
			d="M4.33333 1.5H12.3333C13.0406 1.5 13.7189 1.78095 14.219 2.28105C14.719 2.78115 15 3.45942 15 4.16667C15 4.87391 14.719 5.55219 14.219 6.05229C13.7189 6.55238 13.0406 6.83333 12.3333 6.83333H4.33333C3.44928 6.83333 2.60143 7.18452 1.97631 7.80964C1.35119 8.43477 1 9.28261 1 10.1667C1 11.0507 1.35119 11.8986 1.97631 12.5237C2.60143 13.1488 3.44928 13.5 4.33333 13.5H13"
			stroke-width="2" stroke-linecap="round" stroke-linejoin="round" />
	</symbol>

</svg>