<svg width="26" height="22" viewBox="0 0 26 22" fill="none" xmlns="http://www.w3.org/2000/svg">
<path d="M24.8566 9.46649C24.0609 14.576 23.1961 20.1617 23.1961 20.1617C23.1961 20.1617 23.0627 21.729 21.9335 22C20.7237 21.981 19.5545 21.5498 18.6102 20.7745C18.3434 20.5694 13.6242 17.5056 11.897 16.0066C11.7208 15.8848 11.5777 15.7191 11.4809 15.5252C11.3841 15.3313 11.3368 15.1155 11.3435 14.8978C11.3501 14.6801 11.4105 14.4676 11.519 14.2803C11.6274 14.093 11.7804 13.9369 11.9637 13.8266C14.3311 11.6012 16.6574 9.33043 18.9414 7.01541C19.7395 6.19759 20.5375 4.29094 17.2142 6.60768C12.4949 9.94492 7.84236 13.0771 7.84236 13.0771C7.36318 13.2987 6.84533 13.4189 6.31976 13.4306C5.7942 13.4424 5.27172 13.3454 4.78357 13.1455C2.78961 12.5327 0.464469 11.7149 0.464469 11.7149C0.464469 11.7149 -1.13162 10.6944 1.59369 9.59376C1.59369 9.59376 13.0929 4.75758 17.0808 3.05597C18.6102 2.37485 23.7941 0.194801 23.7941 0.194801C23.7941 0.194801 26.1882 -0.759709 25.9881 1.55703C25.9214 2.52097 25.3902 5.85821 24.8566 9.46649Z" fill="#B3B3B3"/>
</svg>
